<svg version="1.2" baseProfile="tiny-ps" xmlns="http://www.w3.org/2000/svg" viewBox="0 0 1200 628" width="1200" height="628">
	<title>LOGO 1-ai</title>
	<defs>
		<radialGradient id="grd1" gradientUnits="userSpaceOnUse"  cx="936" cy="-24" r="1314">
			<stop offset="0" stop-color="#00f5ff"  />
			<stop offset="1" stop-color="#0005ff"  />
		</radialGradient>
	</defs>
	<style>
		tspan { white-space:pre }
		.shp0 { fill: url(#grd1) } 
		.shp1 { fill: #ffffff } 
	</style>
	<path id="Layer 2" class="shp0" d="M0 -300L1200 -300L1200 900L0 900L0 -300Z" />
	<g id="Layer 1">
		<g id="&lt;Group&gt;">
			<g id="&lt;Group&gt;">
				<path id="&lt;Path&gt;" class="shp1" d="M349.88 195.2L333.94 164.47L354.13 154L371.22 186.95C363.82 189.09 356.68 191.85 349.88 195.2Z" />
				<path id="&lt;Path&gt;" class="shp1" d="M321.16 214.51L303.72 180.9L323.91 170.43L339.67 200.8C333.09 204.82 326.9 209.42 321.16 214.51Z" />
				<path id="&lt;Path&gt;" class="shp1" d="M508.86 377.77C487.22 411.03 449.75 433.09 407.2 433.09C340.37 433.09 286 378.72 286 311.89C286 245.06 340.37 190.69 407.2 190.69C408.77 190.69 410.32 190.75 411.88 190.81L432.06 229.72C424.19 227.34 415.85 226.05 407.2 226.05C359.79 226.05 321.36 264.48 321.36 311.89C321.36 359.3 359.79 397.74 407.2 397.74C445.18 397.74 477.37 373.07 488.69 338.89L508.86 377.77Z" />
				<path id="&lt;Path&gt;" class="shp1" d="M455.61 473.98L447.94 459.18L447.88 459.18L437.65 439.46C445.2 437.67 452.5 435.22 459.49 432.17L459.82 432.8C459.83 432.8 459.85 432.79 459.87 432.78L475.81 463.51L455.61 473.98Z" />
				<path id="&lt;Path&gt;" class="shp1" d="M485.83 457.56L477.54 441.57L477.48 441.57L469.94 427.04C471.15 426.38 472.34 425.67 473.52 424.97C478.82 421.5 483.86 417.66 488.59 413.48L506.02 447.08L485.83 457.56Z" />
			</g>
			<g id="&lt;Group&gt;">
				<g id="&lt;Group&gt;">
					<path id="&lt;Compound Path&gt;" fill-rule="evenodd" class="shp1" d="M662.06 170.18L678.9 170.18L705.74 233.68L687.01 233.68L682.41 222.42L658.09 222.42L653.59 233.68L635.22 233.68L662.06 170.18ZM677.37 208.82L670.34 190.89L663.23 208.82L677.37 208.82Z" />
					<path id="&lt;Compound Path&gt;" class="shp1" d="M565.41 170.63L616.11 170.63L616.11 185.49L582.7 185.49L582.7 195.04L612.96 195.04L612.96 208.82L582.7 208.82L582.7 218.82L616.57 218.82L616.57 233.68L565.41 233.68L565.41 170.63Z" />
					<path id="&lt;Compound Path&gt;" class="shp1" d="M507.76 186.12L488.85 186.12L488.85 170.81L544.15 170.81L544.15 186.12L525.24 186.12L525.24 233.86L507.76 233.86L507.76 186.12Z" />
					<path id="&lt;Compound Path&gt;" class="shp1" d="M726.65 170.63L745.11 170.63L760.15 195.04L775.19 170.63L793.66 170.63L793.66 233.68L776.27 233.68L776.27 197.47L760.15 222.15L759.79 222.15L743.76 197.65L743.76 233.68L726.65 233.68L726.65 170.63Z" />
				</g>
				<g id="&lt;Group&gt;">
					<path id="&lt;Compound Path&gt;" class="shp1" d="M510.03 316.12L467.92 246.78L502.9 246.78L525.7 287.15L548.65 246.78L583.01 246.78L540.9 315.65L540.9 357.6L510.03 357.6L510.03 316.12Z" />
					<path id="&lt;Compound Path&gt;" class="shp1" d="M726.09 273.7L692.85 273.7L692.85 246.78L790.05 246.78L790.05 273.7L756.8 273.7L756.8 357.6L726.09 357.6L726.09 273.7Z" />
					<path id="&lt;Compound Path&gt;" fill-rule="evenodd" class="shp1" d="M592.73 246.78L640.22 246.78C668.24 246.78 686.29 261.19 686.29 285.73L686.29 286.04C686.29 312.16 666.18 325.94 638.64 325.94L623.44 325.94L623.44 357.6L592.73 357.6L592.73 246.78ZM638 301.87C648.93 301.87 655.57 296.18 655.57 287.47L655.57 287.15C655.57 277.65 648.93 272.59 637.84 272.59L623.44 272.59L623.44 301.87L638 301.87Z" />
					<path id="&lt;Compound Path&gt;" fill-rule="evenodd" class="shp1" d="M794.95 302.51L794.95 302.19C794.95 270.37 820.59 244.57 854.79 244.57C888.98 244.57 914.31 270.06 914.31 301.87L914.31 302.19C914.31 334.01 888.67 359.82 854.47 359.82C820.28 359.82 794.95 334.33 794.95 302.51ZM882.96 302.51L882.96 302.19C882.96 286.2 871.41 272.27 854.47 272.27C837.69 272.27 826.45 285.89 826.45 301.87L826.45 302.19C826.45 318.18 838.01 332.11 854.79 332.11C871.72 332.11 882.96 318.5 882.96 302.51Z" />
					<path id="&lt;Compound Path&gt;" fill-rule="evenodd" class="shp1" d="M368.2 246.78L420.59 246.78C437.53 246.78 449.25 251.22 456.69 258.82C463.18 265.15 466.5 273.7 466.5 284.62L466.5 284.93C466.5 301.87 457.48 313.11 443.7 318.97L470.14 357.6L434.68 357.6L412.36 324.04L398.91 324.04L398.91 357.6L368.2 357.6L368.2 246.78ZM419.17 299.97C429.62 299.97 435.63 294.91 435.63 286.83L435.63 286.52C435.63 277.81 429.3 273.38 419.01 273.38L398.91 273.38L398.91 299.97L419.17 299.97Z" />
				</g>
			</g>
		</g>
	</g>
</svg>